<mxfile host="app.diagrams.net" agent="Mozilla/5.0 (Windows NT 10.0; Win64; x64) AppleWebKit/537.36 (KHTML, like Gecko) Chrome/130.0.0.0 Safari/537.36 Edg/130.0.0.0" version="24.8.6">
  <diagram name="Page-1" id="eAXmCEPJEl8wzI3TKKYt">
    <mxGraphModel dx="1434" dy="754" grid="1" gridSize="10" guides="1" tooltips="1" connect="1" arrows="1" fold="1" page="1" pageScale="1" pageWidth="850" pageHeight="1100" math="0" shadow="0">
      <root>
        <mxCell id="0" />
        <mxCell id="1" parent="0" />
        <mxCell id="lnxJ0q8NsiQiwPAIgCfX-1" value="10" style="ellipse;whiteSpace=wrap;html=1;aspect=fixed;" vertex="1" parent="1">
          <mxGeometry x="380" y="120" width="40" height="40" as="geometry" />
        </mxCell>
        <mxCell id="lnxJ0q8NsiQiwPAIgCfX-2" value="7" style="ellipse;whiteSpace=wrap;html=1;aspect=fixed;" vertex="1" parent="1">
          <mxGeometry x="300" y="170" width="40" height="40" as="geometry" />
        </mxCell>
        <mxCell id="lnxJ0q8NsiQiwPAIgCfX-3" value="4" style="ellipse;whiteSpace=wrap;html=1;aspect=fixed;" vertex="1" parent="1">
          <mxGeometry x="480" y="200" width="40" height="40" as="geometry" />
        </mxCell>
        <mxCell id="lnxJ0q8NsiQiwPAIgCfX-4" value="3" style="ellipse;whiteSpace=wrap;html=1;aspect=fixed;" vertex="1" parent="1">
          <mxGeometry x="220" y="250" width="40" height="40" as="geometry" />
        </mxCell>
        <mxCell id="lnxJ0q8NsiQiwPAIgCfX-6" value="2" style="ellipse;whiteSpace=wrap;html=1;aspect=fixed;" vertex="1" parent="1">
          <mxGeometry x="440" y="300" width="40" height="40" as="geometry" />
        </mxCell>
        <mxCell id="lnxJ0q8NsiQiwPAIgCfX-7" value="2" style="ellipse;whiteSpace=wrap;html=1;aspect=fixed;" vertex="1" parent="1">
          <mxGeometry x="540" y="300" width="40" height="40" as="geometry" />
        </mxCell>
        <mxCell id="lnxJ0q8NsiQiwPAIgCfX-8" value="3" style="ellipse;whiteSpace=wrap;html=1;aspect=fixed;" vertex="1" parent="1">
          <mxGeometry x="360" y="300" width="40" height="40" as="geometry" />
        </mxCell>
        <mxCell id="lnxJ0q8NsiQiwPAIgCfX-11" value="" style="endArrow=none;html=1;rounded=0;" edge="1" parent="1">
          <mxGeometry width="50" height="50" relative="1" as="geometry">
            <mxPoint x="250" y="255" as="sourcePoint" />
            <mxPoint x="300" y="205" as="targetPoint" />
          </mxGeometry>
        </mxCell>
        <mxCell id="lnxJ0q8NsiQiwPAIgCfX-12" value="" style="endArrow=none;html=1;rounded=0;exitX=0.775;exitY=-0.075;exitDx=0;exitDy=0;exitPerimeter=0;" edge="1" parent="1" source="lnxJ0q8NsiQiwPAIgCfX-6">
          <mxGeometry width="50" height="50" relative="1" as="geometry">
            <mxPoint x="429.9999999999999" y="279.20000000000005" as="sourcePoint" />
            <mxPoint x="496.4" y="240" as="targetPoint" />
          </mxGeometry>
        </mxCell>
        <mxCell id="lnxJ0q8NsiQiwPAIgCfX-14" value="" style="endArrow=none;html=1;rounded=0;" edge="1" parent="1">
          <mxGeometry width="50" height="50" relative="1" as="geometry">
            <mxPoint x="340" y="180" as="sourcePoint" />
            <mxPoint x="375" y="146" as="targetPoint" />
          </mxGeometry>
        </mxCell>
        <mxCell id="lnxJ0q8NsiQiwPAIgCfX-15" value="" style="endArrow=none;html=1;rounded=0;entryX=0.2;entryY=0;entryDx=0;entryDy=0;entryPerimeter=0;" edge="1" parent="1" source="lnxJ0q8NsiQiwPAIgCfX-5">
          <mxGeometry width="50" height="50" relative="1" as="geometry">
            <mxPoint x="330" y="210" as="sourcePoint" />
            <mxPoint x="368" y="270" as="targetPoint" />
            <Array as="points" />
          </mxGeometry>
        </mxCell>
        <mxCell id="lnxJ0q8NsiQiwPAIgCfX-18" value="" style="endArrow=none;html=1;rounded=0;entryX=0.325;entryY=0.075;entryDx=0;entryDy=0;entryPerimeter=0;exitX=0.75;exitY=1.025;exitDx=0;exitDy=0;exitPerimeter=0;" edge="1" parent="1" source="lnxJ0q8NsiQiwPAIgCfX-3" target="lnxJ0q8NsiQiwPAIgCfX-7">
          <mxGeometry width="50" height="50" relative="1" as="geometry">
            <mxPoint x="570" y="240" as="sourcePoint" />
            <mxPoint x="610" y="290" as="targetPoint" />
          </mxGeometry>
        </mxCell>
        <mxCell id="lnxJ0q8NsiQiwPAIgCfX-19" value="" style="endArrow=none;html=1;rounded=0;entryX=0;entryY=0.2;entryDx=0;entryDy=0;entryPerimeter=0;exitX=1.02;exitY=0.84;exitDx=0;exitDy=0;exitPerimeter=0;" edge="1" parent="1" source="lnxJ0q8NsiQiwPAIgCfX-1" target="lnxJ0q8NsiQiwPAIgCfX-3">
          <mxGeometry width="50" height="50" relative="1" as="geometry">
            <mxPoint x="470" y="170" as="sourcePoint" />
            <mxPoint x="510" y="220" as="targetPoint" />
          </mxGeometry>
        </mxCell>
        <mxCell id="lnxJ0q8NsiQiwPAIgCfX-20" value="" style="endArrow=none;html=1;rounded=0;entryX=0.5;entryY=1;entryDx=0;entryDy=0;exitX=0.5;exitY=0;exitDx=0;exitDy=0;" edge="1" parent="1" source="lnxJ0q8NsiQiwPAIgCfX-8" target="lnxJ0q8NsiQiwPAIgCfX-5">
          <mxGeometry width="50" height="50" relative="1" as="geometry">
            <mxPoint x="365" y="370" as="sourcePoint" />
            <mxPoint x="450" y="360" as="targetPoint" />
          </mxGeometry>
        </mxCell>
        <mxCell id="lnxJ0q8NsiQiwPAIgCfX-22" value="" style="endArrow=none;html=1;rounded=0;entryX=0.2;entryY=0;entryDx=0;entryDy=0;entryPerimeter=0;" edge="1" parent="1" target="lnxJ0q8NsiQiwPAIgCfX-5">
          <mxGeometry width="50" height="50" relative="1" as="geometry">
            <mxPoint x="330" y="210" as="sourcePoint" />
            <mxPoint x="368" y="270" as="targetPoint" />
            <Array as="points" />
          </mxGeometry>
        </mxCell>
        <mxCell id="lnxJ0q8NsiQiwPAIgCfX-5" value="1" style="ellipse;whiteSpace=wrap;html=1;aspect=fixed;" vertex="1" parent="1">
          <mxGeometry x="360" y="240" width="40" height="40" as="geometry" />
        </mxCell>
      </root>
    </mxGraphModel>
  </diagram>
</mxfile>
